<?xml version="1.0" standalone="no"?>
<!DOCTYPE svg PUBLIC "-//W3C//DTD SVG 20010904//EN"
 "http://www.w3.org/TR/2001/REC-SVG-20010904/DTD/svg10.dtd">
<svg version="1.0" xmlns="http://www.w3.org/2000/svg"
 width="300.000000pt" height="300.000000pt" viewBox="0 0 300.000000 300.000000"
 preserveAspectRatio="xMidYMid meet">
<metadata>
Created by potrace 1.10, written by Peter Selinger 2001-2011
</metadata>
<g transform="translate(0.000000,300.000000) scale(0.100000,-0.100000)"
fill="#000000" stroke="none">
<path d="M1425 2731 c-137 -62 -150 -247 -23 -327 l38 -24 0 -125 0 -125 -302
0 c-167 0 -334 -5 -371 -10 -186 -27 -314 -166 -325 -351 l-4 -77 -43 -11
c-55 -14 -103 -54 -126 -106 -27 -59 -27 -341 0 -400 23 -52 71 -92 126 -106
l43 -11 4 -76 c9 -184 140 -325 325 -352 39 -5 338 -10 699 -10 629 0 631 0
658 -21 15 -12 72 -88 127 -170 110 -164 134 -185 203 -176 30 4 50 15 73 41
l33 36 0 364 0 364 44 11 c56 14 104 54 127 106 27 59 27 341 0 400 -23 52
-71 92 -126 106 l-43 11 -4 77 c-11 185 -139 324 -325 351 -37 5 -204 10 -370
10 l-303 0 0 125 0 125 38 24 c46 29 68 60 83 118 29 109 -65 228 -181 228
-19 0 -53 -9 -75 -19z m120 -127 c25 -25 16 -75 -17 -94 -25 -13 -31 -13 -55
0 -56 31 -36 110 27 110 16 0 36 -7 45 -16z m727 -620 c54 -18 109 -68 141
-127 l22 -42 3 -720 c1 -428 -1 -716 -6 -710 -5 6 -47 66 -92 135 -96 146
-121 174 -175 203 -40 22 -47 22 -730 27 -385 3 -699 9 -710 14 -52 24 -105
72 -131 119 l-29 52 0 440 c0 436 0 440 22 480 39 70 83 110 148 133 20 7 272
11 761 11 638 1 736 -1 776 -15z m-1832 -609 c0 -154 -2 -185 -14 -185 -8 0
-22 7 -30 16 -23 23 -23 315 0 338 8 9 22 16 30 16 12 0 14 -31 14 -185z
m2164 169 c13 -13 16 -43 16 -169 0 -126 -3 -156 -16 -169 -8 -9 -22 -16 -30
-16 -12 0 -14 31 -14 185 0 154 2 185 14 185 8 0 22 -7 30 -16z"/>
<path d="M925 1546 c-56 -24 -115 -112 -115 -171 0 -32 25 -90 53 -122 75 -85
199 -85 274 0 28 32 53 90 53 122 0 60 -60 148 -117 171 -41 17 -109 17 -148
0z m115 -126 c11 -11 20 -31 20 -45 0 -30 -32 -65 -60 -65 -28 0 -60 35 -60
65 0 30 32 65 60 65 11 0 29 -9 40 -20z"/>
<path d="M1425 1546 c-56 -24 -115 -112 -115 -171 0 -32 25 -90 53 -122 75
-85 199 -85 274 0 28 32 53 90 53 122 0 60 -60 148 -117 171 -41 17 -109 17
-148 0z m115 -126 c11 -11 20 -31 20 -45 0 -30 -32 -65 -60 -65 -28 0 -60 35
-60 65 0 30 32 65 60 65 11 0 29 -9 40 -20z"/>
<path d="M1925 1546 c-56 -24 -115 -112 -115 -171 0 -32 25 -90 53 -122 75
-85 199 -85 274 0 28 32 53 90 53 122 0 60 -60 148 -117 171 -41 17 -109 17
-148 0z m115 -126 c11 -11 20 -31 20 -45 0 -30 -32 -65 -60 -65 -28 0 -60 35
-60 65 0 30 32 65 60 65 11 0 29 -9 40 -20z"/>
</g>
</svg>
